<?xml version="1.0" encoding="UTF-8"?>
<svg id="Layer_1" data-name="Layer 1" xmlns="http://www.w3.org/2000/svg" viewBox="0 0 1920 1080">
  <defs>
    <style>
      .cls-1 {
        stroke: #948979;
      }

      .cls-1, .cls-2 {
        fill: none;
        stroke-miterlimit: 10;
        stroke-width: 6.11px;
      }

      .cls-3 {
        fill: #dfd0b9;
      }

      .cls-2 {
        stroke: #dfd0b9;
      }

      .cls-4 {
        fill: #948979;
      }
    </style>
  </defs>
  <rect width="1920" height="1080"/>
  <g>
    <line class="cls-1" x1="972.89" y1="456.27" x2="1126.18" y2="549.89"/>
    <line class="cls-2" x1="972.43" y1="536.88" x2="1121.03" y2="435.25"/>
    <line class="cls-2" x1="990.92" y1="410.77" x2="1119.02" y2="410.76"/>
    <line class="cls-1" x1="988.55" y1="583.46" x2="1117.91" y2="583.45"/>
    <line class="cls-2" x1="686.57" y1="540.01" x2="857.82" y2="436.93"/>
    <line class="cls-2" x1="698.04" y1="413.85" x2="852.24" y2="412.5"/>
    <line class="cls-2" x1="688.61" y1="449.65" x2="858.96" y2="551.77"/>
    <line class="cls-2" x1="698.24" y1="580.7" x2="853.26" y2="580.63"/>
  </g>
  <path class="cls-3" d="M1185.17,478.06c-39.03,0-70.78-31.75-70.78-70.78s31.75-70.78,70.78-70.78,70.78,31.75,70.78,70.78-31.75,70.78-70.78,70.78ZM1185.17,342.61c-35.66,0-64.67,29.01-64.67,64.67s29.01,64.67,64.67,64.67,64.67-29.01,64.67-64.67-29.01-64.67-64.67-64.67Z"/>
  <path class="cls-4" d="M1185.17,647.51c-39.03,0-70.78-31.75-70.78-70.78s31.75-70.78,70.78-70.78,70.78,31.75,70.78,70.78-31.75,70.78-70.78,70.78ZM1185.17,512.07c-35.66,0-64.67,29.01-64.67,64.67s29.01,64.67,64.67,64.67,64.67-29.01,64.67-64.67-29.01-64.67-64.67-64.67Z"/>
  <path class="cls-3" d="M920.51,480.35c-39.03,0-70.78-31.75-70.78-70.78s31.75-70.78,70.78-70.78,70.78,31.75,70.78,70.78-31.75,70.78-70.78,70.78ZM920.51,344.9c-35.66,0-64.67,29.01-64.67,64.67s29.01,64.67,64.67,64.67,64.67-29.01,64.67-64.67-29.01-64.67-64.67-64.67Z"/>
  <path class="cls-3" d="M629.99,479.97c-39.03,0-70.78-31.75-70.78-70.78s31.75-70.78,70.78-70.78,70.78,31.75,70.78,70.78-31.75,70.78-70.78,70.78ZM629.99,344.52c-35.66,0-64.67,29.01-64.67,64.67s29.01,64.67,64.67,64.67,64.67-29.01,64.67-64.67-29.01-64.67-64.67-64.67Z"/>
  <path class="cls-3" d="M629.99,651.4c-39.03,0-70.78-31.75-70.78-70.78s31.75-70.78,70.78-70.78,70.78,31.75,70.78,70.78-31.75,70.78-70.78,70.78ZM629.99,515.95c-35.66,0-64.67,29.01-64.67,64.67s29.01,64.67,64.67,64.67,64.67-29.01,64.67-64.67-29.01-64.67-64.67-64.67Z"/>
  <path class="cls-3" d="M920.51,649.8c-39.03,0-70.78-31.75-70.78-70.78s31.75-70.78,70.78-70.78,70.78,31.75,70.78,70.78-31.75,70.78-70.78,70.78ZM920.51,514.36c-35.66,0-64.67,29.01-64.67,64.67s29.01,64.67,64.67,64.67,64.67-29.01,64.67-64.67-29.01-64.67-64.67-64.67Z"/>
  <polygon class="cls-3" points="1318.1 409.57 1283.48 395.43 1290.14 406.89 1256.2 406.89 1256.2 412.25 1290.14 412.25 1283.48 423.71 1318.1 409.57"/>
  <polygon class="cls-4" points="1318.1 580.87 1283.48 566.73 1290.14 578.19 1256.2 578.19 1256.2 583.55 1290.14 583.55 1283.48 595.02 1318.1 580.87"/>
  <polygon class="cls-3" points="929.56 412.87 881.19 412.87 881.19 407.76 927.03 407.76 954.27 372.16 958.33 375.27 929.56 412.87"/>
  <g>
    <path class="cls-3" d="M888.08,424.43c1.49-.24,3.72-.43,6.19-.43,3.05,0,5.18.46,6.65,1.62,1.22.98,1.89,2.41,1.89,4.3,0,2.62-1.86,4.42-3.63,5.06v.09c1.43.58,2.23,1.95,2.74,3.84.64,2.32,1.28,5,1.68,5.79h-4.76c-.34-.58-.82-2.26-1.43-4.79-.55-2.56-1.43-3.26-3.32-3.29h-1.4v8.08h-4.6v-20.27ZM892.68,433.27h1.83c2.32,0,3.69-1.16,3.69-2.96,0-1.89-1.28-2.83-3.41-2.87-1.13,0-1.77.09-2.1.15v5.67Z"/>
    <path class="cls-3" d="M909.57,438.73c.15,1.92,2.04,2.84,4.21,2.84,1.58,0,2.87-.21,4.12-.61l.61,3.14c-1.52.61-3.38.91-5.4.91-5.06,0-7.96-2.93-7.96-7.59,0-3.78,2.35-7.96,7.53-7.96,4.82,0,6.65,3.75,6.65,7.44,0,.79-.09,1.49-.15,1.83h-9.6ZM915.02,435.56c0-1.13-.49-3.02-2.62-3.02-1.95,0-2.74,1.77-2.87,3.02h5.49Z"/>
    <path class="cls-3" d="M922.25,424.16h4.67v16.65h8.17v3.9h-12.83v-20.55Z"/>
    <path class="cls-3" d="M941.51,424.16v11.83c0,3.54,1.34,5.33,3.72,5.33s3.78-1.71,3.78-5.33v-11.83h4.63v11.52c0,6.34-3.2,9.36-8.57,9.36s-8.23-2.87-8.23-9.42v-11.46h4.66Z"/>
  </g>
  <polygon class="cls-3" points="929.56 582.25 881.19 582.25 881.19 577.13 927.03 577.13 954.27 541.54 958.33 544.65 929.56 582.25"/>
  <g>
    <path class="cls-3" d="M887.62,595.39c1.49-.24,3.72-.43,6.19-.43,3.05,0,5.18.46,6.65,1.62,1.22.98,1.89,2.41,1.89,4.3,0,2.62-1.86,4.42-3.63,5.06v.09c1.43.58,2.23,1.95,2.74,3.84.64,2.32,1.28,5,1.68,5.79h-4.76c-.34-.58-.82-2.26-1.43-4.79-.55-2.56-1.43-3.26-3.32-3.29h-1.4v8.08h-4.6v-20.27ZM892.22,604.23h1.83c2.32,0,3.69-1.16,3.69-2.96,0-1.89-1.28-2.83-3.41-2.87-1.13,0-1.77.09-2.1.15v5.67Z"/>
    <path class="cls-3" d="M909.11,609.69c.15,1.92,2.04,2.84,4.21,2.84,1.58,0,2.87-.21,4.12-.61l.61,3.14c-1.52.61-3.38.91-5.4.91-5.06,0-7.96-2.93-7.96-7.59,0-3.78,2.35-7.96,7.53-7.96,4.82,0,6.65,3.75,6.65,7.44,0,.79-.09,1.49-.15,1.83h-9.6ZM914.56,606.52c0-1.13-.49-3.02-2.62-3.02-1.95,0-2.74,1.77-2.87,3.02h5.49Z"/>
    <path class="cls-3" d="M921.79,595.12h4.67v16.65h8.17v3.9h-12.83v-20.55Z"/>
    <path class="cls-3" d="M941.05,595.12v11.83c0,3.54,1.34,5.33,3.72,5.33s3.78-1.71,3.78-5.33v-11.83h4.63v11.52c0,6.34-3.2,9.36-8.57,9.36s-8.23-2.87-8.23-9.42v-11.46h4.66Z"/>
  </g>
</svg>