<?xml version="1.0" encoding="UTF-8"?>
<svg id="Layer_1" data-name="Layer 1" xmlns="http://www.w3.org/2000/svg" viewBox="0 0 1920 1080">
  <defs>
    <style>
      .cls-1 {
        fill: #948979;
      }
    </style>
  </defs>
  <rect x="0" width="1920" height="1080"/>
  <g>
    <path class="cls-1" d="M492.98,629.03v-114.42h-2v114.42c0,4,3.25,7.25,7.25,7.25h15.46v-2h-15.46c-2.9,0-5.25-2.36-5.25-5.25Z"/>
    <path class="cls-1" d="M492.98,459.93v-102.97c0-2.9,2.35-5.25,5.25-5.25h15.46v-2h-15.46c-4,0-7.25,3.25-7.25,7.25v102.97h2Z"/>
  </g>
  <path class="cls-1" d="M501.01,501.89h-18.72c0-1.18,0-1.28.57-1.8l5.97-6.16c5.59-5.73,9.05-9.34,9.05-14.27,0-3.98-2.27-7.72-6.68-7.72-2.32,0-5.5,1.18-6.87,4.64.57,0,2.94,0,2.94,2.46,0,1.8-1.47,2.51-2.46,2.51-.66,0-2.51-.33-2.51-2.65,0-4.22,3.74-8.53,9.43-8.53s10.66,3.65,10.66,9.29c0,4.31-2.8,6.92-5.73,9.62-.76.66-2.75,2.23-3.51,2.94l-6.4,5.78h8.44c.76,0,4.36,0,4.64-.38.57-.9.95-3.27,1.09-4.22h1.47l-1.37,8.48Z"/>
  <g>
    <path class="cls-1" d="M1242.52,297.32h-167.43v2h167.43c4.19,0,7.59,3.41,7.59,7.59v14.4h2v-14.4c0-5.29-4.3-9.59-9.59-9.59Z"/>
    <path class="cls-1" d="M1031.67,297.32h-163.11c-5.29,0-9.59,4.3-9.59,9.59v14.4h2v-14.4c0-4.19,3.41-7.59,7.59-7.59h163.11v-2Z"/>
  </g>
  <path class="cls-1" d="M1060.67,313.08h-18.72c0-1.19,0-1.28.57-1.8l5.97-6.16c5.59-5.73,9.05-9.34,9.05-14.26,0-3.98-2.27-7.73-6.68-7.73-2.32,0-5.5,1.18-6.87,4.64.57,0,2.94,0,2.94,2.46,0,1.8-1.47,2.51-2.46,2.51-.66,0-2.51-.33-2.51-2.65,0-4.22,3.74-8.53,9.43-8.53s10.66,3.65,10.66,9.29c0,4.31-2.8,6.92-5.74,9.62-.76.66-2.75,2.23-3.51,2.94l-6.4,5.78h8.44c.76,0,4.36,0,4.64-.38.57-.9.95-3.27,1.09-4.22h1.47l-1.38,8.48Z"/>
</svg>