<?xml version="1.0" encoding="UTF-8"?>
<svg id="Layer_1" data-name="Layer 1" xmlns="http://www.w3.org/2000/svg" viewBox="0 0 1920 1080">
  <defs>
    <style>
      .cls-1 {
        fill: #948979;
      }
    </style>
  </defs>
  <rect y="0" width="1920" height="1080"/>
  <g>
    <path class="cls-1" d="M1731.69,403h-2v-203.19c0-9.15-7.45-16.6-16.6-16.6h-737.97c-9.15,0-16.6,7.45-16.6,16.6v114.58h-2v-114.58c0-10.26,8.34-18.6,18.6-18.6h737.97c10.25,0,18.6,8.34,18.6,18.6v203.19Z"/>
    <polygon class="cls-1" points="957.53 328.52 965.66 308.62 957.53 313.34 949.4 308.62 957.53 328.52"/>
    <polygon class="cls-1" points="1730.69 417.13 1722.56 397.23 1730.69 401.95 1738.82 397.23 1730.69 417.13"/>
  </g>
  <g>
    <path class="cls-1" d="M1714.7,906.72h-739.63c-10.28,0-18.64-7.86-18.64-17.52v-189.87h2v189.87c0,8.56,7.46,15.52,16.64,15.52h739.63c9.17,0,16.64-6.96,16.64-15.52v-106.7h2v106.7c0,9.66-8.36,17.52-18.64,17.52Z"/>
    <polygon class="cls-1" points="1732.34 768.38 1724.21 788.28 1732.34 783.56 1740.47 788.28 1732.34 768.38"/>
    <polygon class="cls-1" points="957.43 685.2 965.56 705.1 957.43 700.38 949.31 705.1 957.43 685.2"/>
  </g>
</svg>