<?xml version="1.0" encoding="UTF-8"?>
<svg id="Layer_1" data-name="Layer 1" xmlns="http://www.w3.org/2000/svg" viewBox="0 0 1920 1080">
  <defs>
    <style>
      .cls-1 {
        opacity: .2;
      }

      .cls-2 {
        fill: #6c946f;
      }
    </style>
  </defs>
  <rect y="0" width="1920" height="1080"/>
  <path class="cls-2" d="M493.26,857.63c-.33,0-.66-.11-.93-.32-.36-.28-.57-.72-.57-1.18v-262.89c0-.46.21-.9.58-1.18.36-.28.84-.39,1.29-.27l177.19,44.14c.67.17,1.14.77,1.14,1.46v175.58c0,.69-.47,1.29-1.14,1.46l-177.19,43.17c-.12.03-.24.04-.36.04ZM494.76,595.17v259.06l174.19-42.44v-173.23l-174.19-43.39Z"/>
  <g class="cls-1">
    <polygon class="cls-2" points="493.48 597.36 493.48 860.25 670.67 817.08 670.67 641.5 493.48 597.36"/>
    <path d="M493.35,860.4v-263.2l.16.04,177.28,44.16v175.77l-.1.02-177.34,43.21ZM493.6,597.52v262.57l176.94-43.11v-175.38l-176.94-44.07Z"/>
  </g>
  <g>
    <path class="cls-2" d="M536.46,695.41v24.13h-5.48v-24.13h5.48Z"/>
    <path class="cls-2" d="M561.58,710.3c-.11-2.9-.21-6.41-.21-9.92h-.11c-.75,3.08-1.75,6.52-2.68,9.34l-2.94,9.42h-4.26l-2.58-9.34c-.79-2.83-1.61-6.26-2.18-9.41h-.07c-.14,3.26-.25,6.98-.43,9.99l-.43,9.16h-5.05l1.54-24.13h7.27l2.36,8.05c.75,2.79,1.5,5.8,2.04,8.63h.11c.68-2.79,1.5-5.98,2.29-8.66l2.58-8.02h7.12l1.33,24.13h-5.33l-.36-9.24Z"/>
    <path class="cls-2" d="M576.97,713.35l-1.72,6.19h-5.66l7.37-24.13h7.16l7.48,24.13h-5.87l-1.86-6.19h-6.91ZM583.09,709.27l-1.5-5.12c-.43-1.43-.86-3.22-1.22-4.65h-.07c-.36,1.43-.72,3.26-1.11,4.65l-1.43,5.12h5.33Z"/>
    <path class="cls-2" d="M614.09,718.43c-1.68.57-4.87,1.36-8.05,1.36-4.4,0-7.59-1.11-9.81-3.26-2.22-2.08-3.44-5.23-3.4-8.77.04-8.02,5.87-12.6,13.78-12.6,3.11,0,5.51.61,6.69,1.18l-1.15,4.37c-1.32-.57-2.97-1.04-5.62-1.04-4.55,0-7.98,2.58-7.98,7.8s3.11,7.91,7.59,7.91c1.25,0,2.25-.14,2.68-.36v-5.05h-3.72v-4.26h8.99v12.71Z"/>
    <path class="cls-2" d="M632.7,709.34h-8.88v5.73h9.92v4.47h-15.39v-24.13h14.89v4.47h-9.41v5.01h8.88v4.44Z"/>
    <path class="cls-2" d="M521.1,743.35h-8.88v5.73h9.92v4.47h-15.39v-24.13h14.89v4.47h-9.41v5.01h8.88v4.44Z"/>
    <path class="cls-2" d="M525.86,753.56v-24.13h6.37l5.01,8.84c1.43,2.54,2.86,5.55,3.94,8.27h.11c-.36-3.19-.46-6.44-.46-10.06v-7.05h5.01v24.13h-5.73l-5.16-9.31c-1.43-2.58-3.01-5.69-4.19-8.52l-.11.04c.14,3.19.21,6.59.21,10.52v7.27h-5.01Z"/>
    <path class="cls-2" d="M568.28,752.88c-1,.5-3.26,1.04-6.19,1.04-8.34,0-12.64-5.19-12.64-12.06,0-8.23,5.87-12.82,13.17-12.82,2.83,0,4.98.57,5.94,1.07l-1.11,4.33c-1.11-.47-2.65-.9-4.58-.9-4.33,0-7.7,2.61-7.7,7.98,0,4.83,2.86,7.88,7.73,7.88,1.65,0,3.47-.36,4.55-.79l.82,4.26Z"/>
    <path class="cls-2" d="M592.87,741.24c0,7.91-4.8,12.71-11.85,12.71s-11.35-5.41-11.35-12.28c0-7.23,4.62-12.64,11.74-12.64s11.46,5.55,11.46,12.21ZM575.43,741.56c0,4.73,2.22,8.05,5.87,8.05s5.8-3.51,5.8-8.2c0-4.33-2.08-8.05-5.83-8.05s-5.83,3.51-5.83,8.2Z"/>
    <path class="cls-2" d="M596.44,729.75c2-.32,4.62-.5,7.37-.5,4.58,0,7.55.82,9.88,2.58,2.51,1.86,4.08,4.83,4.08,9.09,0,4.62-1.68,7.8-4.01,9.77-2.54,2.11-6.41,3.11-11.13,3.11-2.83,0-4.83-.18-6.19-.36v-23.7ZM601.92,749.44c.46.11,1.22.11,1.9.11,4.94.04,8.16-2.68,8.16-8.45.04-5.01-2.9-7.66-7.59-7.66-1.22,0-2,.11-2.47.21v15.79Z"/>
    <path class="cls-2" d="M635.71,743.35h-8.88v5.73h9.92v4.47h-15.39v-24.13h14.89v4.47h-9.41v5.01h8.88v4.44Z"/>
    <path class="cls-2" d="M640.46,729.75c1.75-.29,4.37-.5,7.27-.5,3.58,0,6.08.54,7.8,1.9,1.43,1.15,2.22,2.83,2.22,5.05,0,3.08-2.18,5.19-4.26,5.94v.11c1.68.68,2.61,2.29,3.22,4.51.75,2.72,1.5,5.87,1.97,6.8h-5.58c-.39-.68-.97-2.65-1.68-5.62-.64-3.01-1.68-3.83-3.9-3.87h-1.65v9.49h-5.41v-23.81ZM645.87,740.13h2.15c2.72,0,4.33-1.36,4.33-3.47,0-2.22-1.5-3.33-4.01-3.37-1.33,0-2.08.11-2.47.18v6.66Z"/>
  </g>
</svg>