<?xml version="1.0" encoding="UTF-8"?>
<svg id="Layer_1" data-name="Layer 1" xmlns="http://www.w3.org/2000/svg" viewBox="0 0 1920 1080">
  <defs>
    <style>
      .cls-1 {
        fill: #dfd0b9;
        font-family: LMRoman10-Regular, 'Latin Modern Roman';
        font-size: 49.9px;
      }

      .cls-2 {
        fill: #948979;
      }
    </style>
  </defs>
  <rect x="1.14" y=".64" width="1920" height="1080"/>
  <g>
    <rect class="cls-2" x="449.64" y="237.66" width="38.58" height="12"/>
    <polygon class="cls-2" points="482.97 261.61 514.06 243.66 482.97 225.71 482.97 261.61"/>
  </g>
  <g>
    <rect class="cls-2" x="729.81" y="236.57" width="38.58" height="12"/>
    <polygon class="cls-2" points="763.14 260.52 794.23 242.57 763.14 224.61 763.14 260.52"/>
  </g>
  <g>
    <rect class="cls-2" x="449.64" y="598.66" width="38.58" height="12"/>
    <polygon class="cls-2" points="482.97 622.61 514.06 604.66 482.97 586.71 482.97 622.61"/>
  </g>
  <g>
    <rect class="cls-2" x="729.81" y="597.57" width="38.58" height="12"/>
    <polygon class="cls-2" points="763.14 621.52 794.23 603.57 763.14 585.61 763.14 621.52"/>
  </g>
  <g>
    <path d="M1298.89,604.66c24.5,2.05,54.33-.08,78.28-18.01,47.29-35.41,30.58-101.68,77.96-138.01,15.57-11.94,40.33-22.38,81.39-19.32"/>
    <g>
      <path class="cls-2" d="M1313.49,606.29c-4.75,0-9.65-.21-14.69-.63l.17-1.99c32.11,2.69,58.21-3.3,77.59-17.81,23.41-17.53,31.14-43.31,38.61-68.24,7.58-25.28,15.42-51.43,39.34-69.77,17.36-13.31,40.2-20.06,67.89-20.07v2c-27.24,0-49.68,6.62-66.67,19.66-23.41,17.95-31.15,43.78-38.64,68.76-7.57,25.24-15.39,51.34-39.33,69.26-16.73,12.52-38.3,18.84-64.27,18.84Z"/>
      <polygon class="cls-2" points="1536.52 429.32 1516.37 436.8 1521.35 428.83 1516.89 420.55 1536.52 429.32"/>
    </g>
  </g>
  <text class="cls-1" transform="translate(1569.17 429.55)"><tspan x="0" y="0">0.158</tspan></text>
  <path class="cls-2" d="M1703.27,451.83h-149c-6.43,0-11.65-5.23-11.65-11.65v-51.91c0-6.43,5.23-11.65,11.65-11.65h149c6.43,0,11.65,5.23,11.65,11.65v51.91c0,6.42-5.23,11.65-11.65,11.65ZM1554.28,378.42c-5.44,0-9.86,4.42-9.86,9.86v51.91c0,5.44,4.42,9.86,9.86,9.86h149c5.44,0,9.86-4.42,9.86-9.86v-51.91c0-5.44-4.42-9.86-9.86-9.86h-149Z"/>
  <g>
    <path d="M1297.89,232.85c24.5-2.05,54.33.08,78.28,18.01,47.29,35.41,30.58,101.68,77.96,138.01,15.57,11.94,40.33,22.38,81.39,19.32"/>
    <g>
      <path class="cls-2" d="M1521.41,409.73c-27.69,0-50.54-6.76-67.89-20.07-23.92-18.34-31.76-44.49-39.34-69.77-7.48-24.93-15.21-50.71-38.61-68.24-19.38-14.51-45.48-20.5-77.59-17.81l-.17-1.99c32.61-2.74,59.18,3.39,78.96,18.2,23.94,17.92,31.76,44.02,39.33,69.26,7.49,24.98,15.23,50.81,38.64,68.75,17,13.03,39.43,19.65,66.67,19.66v2Z"/>
      <polygon class="cls-2" points="1535.52 408.19 1515.89 416.96 1520.35 408.68 1515.37 400.71 1535.52 408.19"/>
    </g>
  </g>
  <g>
    <path class="cls-2" d="M1503.68,493.25c-.96.5-3.09,1-5.79,1-7.12,0-11.44-4.46-11.44-11.28,0-7.38,5.12-11.84,11.98-11.84,2.69,0,4.62.56,5.46,1l-.9,3.26c-1.06-.47-2.53-.87-4.39-.87-4.56,0-7.85,2.86-7.85,8.25,0,4.92,2.89,8.08,7.82,8.08,1.66,0,3.39-.33,4.46-.83l.67,3.23Z"/>
    <path class="cls-2" d="M1526.2,482.47c0,7.52-4.56,11.81-10.74,11.81s-10.31-4.82-10.31-11.41,4.32-11.74,10.64-11.74,10.41,4.96,10.41,11.34ZM1509.46,482.81c0,4.56,2.3,8.18,6.22,8.18s6.19-3.66,6.19-8.35c0-4.22-2.1-8.22-6.19-8.22s-6.22,3.76-6.22,8.38Z"/>
    <path class="cls-2" d="M1529.62,489.46c1.33.77,3.33,1.43,5.42,1.43,2.63,0,4.09-1.23,4.09-3.06,0-1.7-1.13-2.69-3.99-3.73-3.69-1.33-6.05-3.29-6.05-6.52,0-3.66,3.06-6.45,7.92-6.45,2.43,0,4.22.53,5.39,1.13l-1,3.29c-.8-.43-2.36-1.06-4.46-1.06-2.59,0-3.73,1.4-3.73,2.69,0,1.73,1.3,2.53,4.29,3.69,3.89,1.46,5.79,3.43,5.79,6.65,0,3.59-2.73,6.72-8.52,6.72-2.36,0-4.82-.67-6.05-1.4l.9-3.39Z"/>
    <path class="cls-2" d="M1551.08,471.5v22.42h-4.09v-22.42h4.09Z"/>
    <path class="cls-2" d="M1555.77,493.92v-22.42h4.66l5.79,9.61c1.5,2.5,2.79,5.09,3.83,7.52h.07c-.27-2.99-.37-5.89-.37-9.31v-7.82h3.79v22.42h-4.22l-5.85-9.85c-1.43-2.46-2.93-5.22-4.03-7.75l-.1.03c.17,2.89.2,5.85.2,9.55v8.02h-3.76Z"/>
    <path class="cls-2" d="M1590.79,483.97h-8.45v6.59h9.45v3.36h-13.54v-22.42h13.04v3.36h-8.95v5.79h8.45v3.33Z"/>
    <path class="cls-2" d="M1602.17,489.46c1.33.77,3.33,1.43,5.42,1.43,2.63,0,4.09-1.23,4.09-3.06,0-1.7-1.13-2.69-3.99-3.73-3.69-1.33-6.05-3.29-6.05-6.52,0-3.66,3.06-6.45,7.92-6.45,2.43,0,4.22.53,5.39,1.13l-1,3.29c-.8-.43-2.36-1.06-4.46-1.06-2.59,0-3.73,1.4-3.73,2.69,0,1.73,1.3,2.53,4.29,3.69,3.89,1.46,5.79,3.43,5.79,6.65,0,3.59-2.73,6.72-8.52,6.72-2.36,0-4.82-.67-6.05-1.4l.9-3.39Z"/>
    <path class="cls-2" d="M1623.62,471.5v22.42h-4.09v-22.42h4.09Z"/>
    <path class="cls-2" d="M1647.24,484.77c-.13-2.89-.3-6.39-.27-9.41h-.1c-.73,2.73-1.66,5.75-2.66,8.58l-3.26,9.71h-3.16l-2.99-9.58c-.87-2.86-1.66-5.92-2.26-8.71h-.07c-.1,2.93-.23,6.49-.4,9.55l-.5,9.01h-3.83l1.5-22.42h5.39l2.93,9.02c.8,2.63,1.5,5.29,2.06,7.78h.1c.6-2.43,1.36-5.19,2.23-7.82l3.09-8.98h5.32l1.3,22.42h-3.99l-.43-9.15Z"/>
    <path class="cls-2" d="M1659.92,471.5v22.42h-4.09v-22.42h4.09Z"/>
    <path class="cls-2" d="M1664.6,471.5h4.09v18.99h9.21v3.43h-13.31v-22.42Z"/>
    <path class="cls-2" d="M1685.63,487.56l-1.93,6.35h-4.22l7.19-22.42h5.22l7.28,22.42h-4.39l-2.03-6.35h-7.12ZM1692.05,484.47l-1.76-5.52c-.43-1.36-.8-2.89-1.13-4.19h-.07c-.33,1.3-.67,2.86-1.06,4.19l-1.73,5.52h5.75Z"/>
    <path class="cls-2" d="M1702.29,471.8c1.53-.27,3.83-.47,6.19-.47,3.23,0,5.42.53,6.92,1.8,1.23,1.03,1.93,2.59,1.93,4.49,0,2.89-1.96,4.86-4.06,5.62v.1c1.6.6,2.56,2.16,3.13,4.32.7,2.79,1.3,5.39,1.76,6.25h-4.22c-.33-.66-.86-2.49-1.5-5.29-.63-2.93-1.7-3.86-4.03-3.92h-2.06v9.21h-4.06v-22.12ZM1706.35,481.71h2.43c2.76,0,4.49-1.46,4.49-3.69,0-2.46-1.73-3.59-4.39-3.59-1.3,0-2.13.1-2.53.2v7.09Z"/>
    <path class="cls-2" d="M1725.31,471.5v22.42h-4.09v-22.42h4.09Z"/>
    <path class="cls-2" d="M1734.29,474.92h-6.39v-3.43h16.93v3.43h-6.45v18.99h-4.09v-18.99Z"/>
    <path class="cls-2" d="M1753.08,493.92v-9.35l-7.08-13.07h4.66l2.69,5.75c.77,1.66,1.33,2.93,1.93,4.46h.07c.57-1.43,1.2-2.83,1.96-4.46l2.69-5.75h4.62l-7.45,12.97v9.45h-4.09Z"/>
  </g>
  <rect class="cls-2" x="719.61" y="826.95" width="452.71" height=".92"/>
  <g>
    <path class="cls-2" d="M836.22,782.48h-6.39v-3.43h16.93v3.43h-6.45v18.99h-4.09v-18.99Z"/>
    <path class="cls-2" d="M868.35,790.04c0,7.52-4.56,11.81-10.74,11.81s-10.31-4.82-10.31-11.41,4.32-11.74,10.64-11.74,10.41,4.96,10.41,11.34ZM851.62,790.37c0,4.56,2.3,8.18,6.22,8.18s6.19-3.66,6.19-8.35c0-4.22-2.1-8.22-6.19-8.22s-6.22,3.76-6.22,8.38Z"/>
    <path class="cls-2" d="M871.88,779.36c1.46-.27,3.49-.47,6.25-.47,2.99,0,5.19.63,6.62,1.83,1.33,1.1,2.2,2.86,2.2,4.96s-.67,3.89-1.93,5.09c-1.63,1.63-4.19,2.39-7.08,2.39-.77,0-1.46-.03-2-.13v8.45h-4.06v-22.12ZM875.94,789.8c.5.13,1.16.17,2,.17,3.06,0,4.92-1.5,4.92-4.12s-1.73-3.83-4.56-3.83c-1.13,0-1.93.1-2.36.2v7.58Z"/>
    <path class="cls-2" d="M916.28,792.33c-.13-2.89-.3-6.39-.27-9.41h-.1c-.73,2.73-1.66,5.76-2.66,8.58l-3.26,9.71h-3.16l-2.99-9.58c-.87-2.86-1.66-5.92-2.26-8.72h-.07c-.1,2.93-.23,6.49-.4,9.55l-.5,9.02h-3.83l1.5-22.42h5.39l2.93,9.01c.8,2.63,1.5,5.29,2.06,7.78h.1c.6-2.43,1.36-5.19,2.23-7.82l3.09-8.98h5.32l1.3,22.42h-3.99l-.43-9.15Z"/>
    <path class="cls-2" d="M929.16,795.12l-1.93,6.35h-4.22l7.19-22.42h5.22l7.28,22.42h-4.39l-2.03-6.35h-7.12ZM935.58,792.03l-1.76-5.52c-.43-1.36-.8-2.89-1.13-4.19h-.07c-.33,1.3-.67,2.86-1.06,4.19l-1.73,5.52h5.75Z"/>
    <path class="cls-2" d="M947.42,782.48h-6.39v-3.43h16.93v3.43h-6.45v18.99h-4.09v-18.99Z"/>
    <path class="cls-2" d="M975.72,800.81c-.96.5-3.09,1-5.79,1-7.12,0-11.44-4.46-11.44-11.28,0-7.38,5.12-11.84,11.98-11.84,2.69,0,4.62.57,5.46,1l-.9,3.26c-1.06-.46-2.53-.86-4.39-.86-4.56,0-7.85,2.86-7.85,8.25,0,4.92,2.89,8.08,7.82,8.08,1.66,0,3.39-.33,4.46-.83l.67,3.23Z"/>
    <path class="cls-2" d="M983.31,779.06v8.98h9.48v-8.98h4.09v22.42h-4.09v-9.88h-9.48v9.88h-4.09v-22.42h4.09Z"/>
    <path class="cls-2" d="M1014.11,791.53h-8.45v6.59h9.45v3.36h-13.54v-22.42h13.04v3.36h-8.95v5.79h8.45v3.33Z"/>
    <path class="cls-2" d="M1018.6,797.02c1.33.76,3.33,1.43,5.42,1.43,2.63,0,4.09-1.23,4.09-3.06,0-1.7-1.13-2.69-3.99-3.73-3.69-1.33-6.05-3.29-6.05-6.52,0-3.66,3.06-6.45,7.92-6.45,2.43,0,4.22.53,5.39,1.13l-1,3.29c-.8-.43-2.36-1.06-4.46-1.06-2.59,0-3.73,1.4-3.73,2.69,0,1.73,1.3,2.53,4.29,3.69,3.89,1.46,5.79,3.43,5.79,6.65,0,3.59-2.73,6.72-8.52,6.72-2.36,0-4.82-.67-6.05-1.4l.9-3.39Z"/>
  </g>
</svg>