<?xml version="1.0" encoding="UTF-8"?>
<svg id="Layer_1" data-name="Layer 1" xmlns="http://www.w3.org/2000/svg" viewBox="0 0 1920 1080">
  <defs>
    <style>
      .cls-1 {
        fill: #dfd0b9;
        font-family: LMRoman10-Regular, 'Latin Modern Roman';
        font-size: 49.9px;
      }

      .cls-2 {
        fill: #948979;
      }
    </style>
  </defs>
  <rect x="0" y="0" width="1920" height="1080"/>
  <polygon class="cls-2" points="512.92 243.02 481.83 225.07 481.83 237.02 448.5 237.02 448.5 249.02 481.83 249.02 481.83 260.97 512.92 243.02"/>
  <polygon class="cls-2" points="793.09 241.92 762 223.97 762 235.92 728.67 235.92 728.67 247.92 762 247.92 762 259.87 793.09 241.92"/>
  <polygon class="cls-2" points="512.92 604.02 481.83 586.07 481.83 598.02 448.5 598.02 448.5 610.02 481.83 610.02 481.83 621.97 512.92 604.02"/>
  <polygon class="cls-2" points="793.09 602.92 762 584.97 762 596.92 728.67 596.92 728.67 608.92 762 608.92 762 620.87 793.09 602.92"/>
  <path class="cls-2" d="M1535.38,428.68l-19.63-8.77,3.91,7.26c-26.97.27-49.27,7-66.28,20.04-23.92,18.34-31.76,44.49-39.34,69.77-7.48,24.93-15.21,50.71-38.61,68.24-19.38,14.51-45.49,20.5-77.59,17.81l-.17,1.99c5.04.42,9.94.63,14.69.63,25.97,0,47.54-6.31,64.27-18.84,23.93-17.92,31.76-44.02,39.33-69.26,7.49-24.98,15.24-50.81,38.64-68.76,16.65-12.76,38.52-19.35,65.01-19.63l-4.37,7,20.15-7.48Z"/>
  <text class="cls-1" transform="translate(1567.03 428.9)"><tspan x="0" y="0">0.158</tspan></text>
  <path class="cls-2" d="M1702.13,451.19h-149c-6.42,0-11.65-5.23-11.65-11.65v-51.9c0-6.43,5.23-11.65,11.65-11.65h149c6.42,0,11.65,5.23,11.65,11.65v51.9c0,6.43-5.23,11.65-11.65,11.65ZM1553.14,377.77c-5.44,0-9.86,4.42-9.86,9.86v51.9c0,5.44,4.42,9.86,9.86,9.86h149c5.44,0,9.86-4.42,9.86-9.86v-51.9c0-5.44-4.42-9.86-9.86-9.86h-149Z"/>
  <path class="cls-2" d="M1534.38,407.56l-19.9-7.39,4.31,6.91c-26.58-.24-48.53-6.67-65.22-19.16-23.41-17.51-31.15-42.7-38.64-67.06-7.57-24.62-15.4-50.09-39.33-67.57-19.78-14.45-46.34-20.42-78.94-17.75l.16,1.97c32.12-2.63,58.23,3.22,77.61,17.38,23.41,17.1,31.14,42.24,38.61,66.56,7.58,24.67,15.42,50.17,39.34,68.06,17.05,12.75,39.41,19.32,66.46,19.55l-3.86,7.17,19.38-8.66Z"/>
  <g>
    <path class="cls-2" d="M1502.54,492.61c-.96.5-3.09,1-5.79,1-7.12,0-11.44-4.46-11.44-11.28,0-7.38,5.12-11.84,11.98-11.84,2.69,0,4.62.57,5.46,1l-.9,3.26c-1.06-.46-2.53-.86-4.39-.86-4.56,0-7.85,2.86-7.85,8.25,0,4.92,2.89,8.08,7.82,8.08,1.66,0,3.39-.33,4.46-.83l.67,3.23Z"/>
    <path class="cls-2" d="M1525.06,481.83c0,7.52-4.56,11.81-10.74,11.81s-10.31-4.82-10.31-11.41,4.32-11.74,10.64-11.74,10.41,4.96,10.41,11.34ZM1508.33,482.16c0,4.56,2.3,8.18,6.22,8.18s6.19-3.66,6.19-8.35c0-4.22-2.1-8.22-6.19-8.22s-6.22,3.76-6.22,8.38Z"/>
    <path class="cls-2" d="M1528.48,488.82c1.33.76,3.33,1.43,5.42,1.43,2.63,0,4.09-1.23,4.09-3.06,0-1.7-1.13-2.69-3.99-3.73-3.69-1.33-6.05-3.29-6.05-6.52,0-3.66,3.06-6.45,7.92-6.45,2.43,0,4.22.53,5.39,1.13l-1,3.29c-.8-.43-2.36-1.06-4.46-1.06-2.59,0-3.73,1.4-3.73,2.69,0,1.73,1.3,2.53,4.29,3.69,3.89,1.46,5.79,3.43,5.79,6.65,0,3.59-2.73,6.72-8.52,6.72-2.36,0-4.82-.67-6.05-1.4l.9-3.39Z"/>
    <path class="cls-2" d="M1549.94,470.85v22.42h-4.09v-22.42h4.09Z"/>
    <path class="cls-2" d="M1554.63,493.27v-22.42h4.66l5.79,9.61c1.5,2.5,2.79,5.09,3.83,7.52h.07c-.27-2.99-.37-5.89-.37-9.31v-7.82h3.79v22.42h-4.22l-5.85-9.85c-1.43-2.46-2.93-5.22-4.03-7.75l-.1.03c.17,2.89.2,5.85.2,9.55v8.02h-3.76Z"/>
    <path class="cls-2" d="M1589.66,483.33h-8.45v6.59h9.45v3.36h-13.54v-22.42h13.04v3.36h-8.95v5.79h8.45v3.33Z"/>
    <path class="cls-2" d="M1601.03,488.82c1.33.76,3.33,1.43,5.42,1.43,2.63,0,4.09-1.23,4.09-3.06,0-1.7-1.13-2.69-3.99-3.73-3.69-1.33-6.05-3.29-6.05-6.52,0-3.66,3.06-6.45,7.92-6.45,2.43,0,4.22.53,5.39,1.13l-1,3.29c-.8-.43-2.36-1.06-4.46-1.06-2.59,0-3.73,1.4-3.73,2.69,0,1.73,1.3,2.53,4.29,3.69,3.89,1.46,5.79,3.43,5.79,6.65,0,3.59-2.73,6.72-8.52,6.72-2.36,0-4.82-.67-6.05-1.4l.9-3.39Z"/>
    <path class="cls-2" d="M1622.49,470.85v22.42h-4.09v-22.42h4.09Z"/>
    <path class="cls-2" d="M1646.1,484.13c-.13-2.89-.3-6.39-.27-9.41h-.1c-.73,2.73-1.66,5.75-2.66,8.58l-3.26,9.71h-3.16l-2.99-9.58c-.87-2.86-1.66-5.92-2.26-8.72h-.07c-.1,2.93-.23,6.49-.4,9.55l-.5,9.01h-3.83l1.5-22.42h5.39l2.93,9.01c.8,2.63,1.5,5.29,2.06,7.78h.1c.6-2.43,1.36-5.19,2.23-7.82l3.09-8.98h5.32l1.3,22.42h-3.99l-.43-9.15Z"/>
    <path class="cls-2" d="M1658.78,470.85v22.42h-4.09v-22.42h4.09Z"/>
    <path class="cls-2" d="M1663.46,470.85h4.09v18.99h9.21v3.43h-13.31v-22.42Z"/>
    <path class="cls-2" d="M1684.49,486.92l-1.93,6.35h-4.22l7.19-22.42h5.22l7.28,22.42h-4.39l-2.03-6.35h-7.12ZM1690.91,483.83l-1.76-5.52c-.43-1.36-.8-2.89-1.13-4.19h-.07c-.33,1.3-.67,2.86-1.06,4.19l-1.73,5.52h5.75Z"/>
    <path class="cls-2" d="M1701.15,471.15c1.53-.27,3.83-.47,6.19-.47,3.23,0,5.42.53,6.92,1.8,1.23,1.03,1.93,2.59,1.93,4.49,0,2.89-1.96,4.86-4.06,5.62v.1c1.6.6,2.56,2.16,3.13,4.32.7,2.79,1.3,5.39,1.76,6.25h-4.22c-.33-.67-.86-2.49-1.5-5.29-.63-2.93-1.7-3.86-4.03-3.92h-2.06v9.21h-4.06v-22.12ZM1705.21,481.07h2.43c2.76,0,4.49-1.46,4.49-3.69,0-2.46-1.73-3.59-4.39-3.59-1.3,0-2.13.1-2.53.2v7.08Z"/>
    <path class="cls-2" d="M1724.17,470.85v22.42h-4.09v-22.42h4.09Z"/>
    <path class="cls-2" d="M1733.15,474.28h-6.39v-3.43h16.93v3.43h-6.45v18.99h-4.09v-18.99Z"/>
    <path class="cls-2" d="M1751.95,493.27v-9.35l-7.08-13.07h4.66l2.69,5.75c.77,1.66,1.33,2.93,1.93,4.46h.07c.57-1.43,1.2-2.83,1.96-4.46l2.69-5.75h4.62l-7.45,12.97v9.45h-4.09Z"/>
  </g>
  <rect class="cls-2" x="718.47" y="826.3" width="452.71" height=".92"/>
  <g>
    <path class="cls-2" d="M835.08,781.84h-6.39v-3.43h16.93v3.43h-6.45v18.99h-4.09v-18.99Z"/>
    <path class="cls-2" d="M867.21,789.39c0,7.52-4.56,11.81-10.74,11.81s-10.31-4.82-10.31-11.41,4.32-11.74,10.64-11.74,10.41,4.96,10.41,11.34ZM850.48,789.72c0,4.56,2.3,8.18,6.22,8.18s6.19-3.66,6.19-8.35c0-4.22-2.1-8.22-6.19-8.22s-6.22,3.76-6.22,8.38Z"/>
    <path class="cls-2" d="M870.74,778.71c1.46-.27,3.49-.47,6.25-.47,2.99,0,5.19.63,6.62,1.83,1.33,1.1,2.2,2.86,2.2,4.96s-.67,3.89-1.93,5.09c-1.63,1.63-4.19,2.4-7.08,2.4-.77,0-1.46-.03-2-.13v8.45h-4.06v-22.12ZM874.8,789.16c.5.13,1.16.17,2,.17,3.06,0,4.92-1.5,4.92-4.12s-1.73-3.83-4.56-3.83c-1.13,0-1.93.1-2.36.2v7.58Z"/>
    <path class="cls-2" d="M915.14,791.69c-.13-2.89-.3-6.39-.27-9.41h-.1c-.73,2.73-1.66,5.75-2.66,8.58l-3.26,9.71h-3.16l-2.99-9.58c-.87-2.86-1.66-5.92-2.26-8.72h-.07c-.1,2.93-.23,6.49-.4,9.55l-.5,9.01h-3.83l1.5-22.42h5.39l2.93,9.01c.8,2.63,1.5,5.29,2.06,7.78h.1c.6-2.43,1.36-5.19,2.23-7.82l3.09-8.98h5.32l1.3,22.42h-3.99l-.43-9.15Z"/>
    <path class="cls-2" d="M928.02,794.48l-1.93,6.35h-4.22l7.19-22.42h5.22l7.28,22.42h-4.39l-2.03-6.35h-7.12ZM934.44,791.39l-1.76-5.52c-.43-1.36-.8-2.89-1.13-4.19h-.07c-.33,1.3-.67,2.86-1.06,4.19l-1.73,5.52h5.75Z"/>
    <path class="cls-2" d="M946.28,781.84h-6.39v-3.43h16.93v3.43h-6.45v18.99h-4.09v-18.99Z"/>
    <path class="cls-2" d="M974.58,800.17c-.96.5-3.09,1-5.79,1-7.12,0-11.44-4.46-11.44-11.28,0-7.38,5.12-11.84,11.98-11.84,2.69,0,4.62.57,5.46,1l-.9,3.26c-1.06-.46-2.53-.86-4.39-.86-4.56,0-7.85,2.86-7.85,8.25,0,4.92,2.89,8.08,7.82,8.08,1.66,0,3.39-.33,4.46-.83l.67,3.23Z"/>
    <path class="cls-2" d="M982.17,778.42v8.98h9.48v-8.98h4.09v22.42h-4.09v-9.88h-9.48v9.88h-4.09v-22.42h4.09Z"/>
    <path class="cls-2" d="M1012.97,790.89h-8.45v6.59h9.45v3.36h-13.54v-22.42h13.04v3.36h-8.95v5.79h8.45v3.33Z"/>
    <path class="cls-2" d="M1017.46,796.38c1.33.76,3.33,1.43,5.42,1.43,2.63,0,4.09-1.23,4.09-3.06,0-1.7-1.13-2.69-3.99-3.73-3.69-1.33-6.05-3.29-6.05-6.52,0-3.66,3.06-6.45,7.92-6.45,2.43,0,4.22.53,5.39,1.13l-1,3.29c-.8-.43-2.36-1.06-4.46-1.06-2.59,0-3.73,1.4-3.73,2.69,0,1.73,1.3,2.53,4.29,3.69,3.89,1.46,5.79,3.43,5.79,6.65,0,3.59-2.73,6.72-8.52,6.72-2.36,0-4.82-.67-6.05-1.4l.9-3.39Z"/>
  </g>
</svg>