<?xml version="1.0" encoding="UTF-8"?>
<svg id="Layer_1" data-name="Layer 1" xmlns="http://www.w3.org/2000/svg" viewBox="0 0 1920 1080">
  <defs>
    <style>
      .cls-1 {
        fill: #948979;
      }
    </style>
  </defs>
  <rect y="0" width="1920" height="1080"/>
  <polygon class="cls-1" points="474.5 314.3 443.41 296.35 443.41 308.3 410.08 308.3 410.08 320.3 443.41 320.3 443.41 332.25 474.5 314.3"/>
  <g>
    <polygon class="cls-1" points="438.83 728.94 405.5 728.94 405.5 740.94 438.83 740.94 438.83 752.89 469.92 734.94 438.83 716.99 438.83 728.94"/>
    <polygon class="cls-1" points="723.59 331.15 754.67 313.2 723.59 295.25 723.59 307.2 690.25 307.2 690.25 319.2 723.59 319.2 723.59 331.15"/>
    <polygon class="cls-1" points="763.27 734.94 732.19 716.99 732.19 728.94 698.86 728.94 698.86 740.94 732.19 740.94 732.19 752.89 763.27 734.94"/>
  </g>
</svg>