<?xml version="1.0" encoding="UTF-8"?>
<svg id="Layer_1" data-name="Layer 1" xmlns="http://www.w3.org/2000/svg" viewBox="0 0 1920 1080">
  <defs>
    <style>
      .cls-1 {
        fill: #9f91c5;
      }

      .cls-2 {
        fill: #5c4c99;
      }

      .cls-3 {
        opacity: .2;
      }
    </style>
  </defs>
  <rect x="0" y="0" width="1920" height="1080"/>
  <path class="cls-2" d="M784.64,847.34c-.33,0-.66-.11-.93-.32-.36-.28-.57-.72-.57-1.18v-262.89c0-.46.21-.9.58-1.18.36-.29.84-.39,1.29-.27l177.19,44.14c.67.17,1.14.77,1.14,1.46v175.58c0,.69-.47,1.29-1.15,1.46l-177.19,43.17c-.12.03-.24.04-.35.04ZM786.14,584.88v259.06l174.19-42.44v-173.23l-174.19-43.39Z"/>
  <g class="cls-3">
    <polygon class="cls-1" points="784.86 583.47 784.86 846.35 962.05 803.18 962.05 627.6 784.86 583.47"/>
    <path d="M784.73,846.51v-263.2l.16.04,177.28,44.16v175.78l-.1.02-177.34,43.21ZM784.98,583.63v262.57l176.94-43.11v-175.38l-176.94-44.07Z"/>
  </g>
  <g>
    <path class="cls-1" d="M840.01,689.7h-6.48v-4.58h18.54v4.58h-6.59v19.55h-5.48v-19.55Z"/>
    <path class="cls-1" d="M869.32,699.05h-8.88v5.73h9.92v4.47h-15.39v-24.13h14.89v4.47h-9.41v5.01h8.88v4.44Z"/>
    <path class="cls-1" d="M886.79,709.25l-2.18-4.37c-.89-1.68-1.47-2.94-2.15-4.33h-.07c-.5,1.4-1.11,2.65-1.86,4.33l-2,4.37h-6.23l6.98-12.21-6.73-11.92h6.26l2.11,4.4c.72,1.47,1.25,2.65,1.83,4.01h.07c.57-1.54,1.04-2.61,1.65-4.01l2.04-4.4h6.23l-6.8,11.78,7.16,12.35h-6.3Z"/>
    <path class="cls-1" d="M900.89,689.7h-6.48v-4.58h18.54v4.58h-6.59v19.55h-5.48v-19.55Z"/>
    <path class="cls-1" d="M812.48,733.06h-8.88v5.73h9.92v4.47h-15.39v-24.13h14.89v4.47h-9.41v5.01h8.88v4.44Z"/>
    <path class="cls-1" d="M817.24,743.27v-24.13h6.37l5.01,8.84c1.43,2.54,2.86,5.55,3.94,8.27h.11c-.36-3.19-.46-6.44-.46-10.06v-7.05h5.01v24.13h-5.73l-5.15-9.31c-1.43-2.58-3.01-5.69-4.19-8.52l-.11.04c.14,3.19.21,6.59.21,10.52v7.27h-5.01Z"/>
    <path class="cls-1" d="M859.66,742.59c-1,.5-3.26,1.04-6.19,1.04-8.34,0-12.64-5.19-12.64-12.06,0-8.23,5.87-12.81,13.17-12.81,2.83,0,4.98.57,5.94,1.07l-1.11,4.33c-1.11-.46-2.65-.89-4.58-.89-4.33,0-7.7,2.61-7.7,7.98,0,4.83,2.86,7.88,7.73,7.88,1.65,0,3.47-.36,4.55-.79l.82,4.26Z"/>
    <path class="cls-1" d="M884.25,730.95c0,7.91-4.8,12.71-11.85,12.71s-11.35-5.41-11.35-12.28c0-7.23,4.62-12.64,11.74-12.64s11.46,5.55,11.46,12.21ZM866.81,731.27c0,4.73,2.22,8.05,5.87,8.05s5.8-3.51,5.8-8.2c0-4.33-2.08-8.05-5.83-8.05s-5.83,3.51-5.83,8.2Z"/>
    <path class="cls-1" d="M887.82,719.46c2-.32,4.62-.5,7.38-.5,4.58,0,7.55.82,9.88,2.58,2.51,1.86,4.08,4.83,4.08,9.09,0,4.62-1.68,7.8-4.01,9.77-2.54,2.11-6.41,3.12-11.13,3.12-2.83,0-4.83-.18-6.19-.36v-23.7ZM893.3,739.15c.46.11,1.22.11,1.9.11,4.94.04,8.16-2.69,8.16-8.45.04-5.01-2.9-7.66-7.59-7.66-1.22,0-2,.11-2.47.21v15.79Z"/>
    <path class="cls-1" d="M927.08,733.06h-8.88v5.73h9.92v4.47h-15.39v-24.13h14.89v4.47h-9.41v5.01h8.88v4.44Z"/>
    <path class="cls-1" d="M931.84,719.46c1.75-.29,4.37-.5,7.27-.5,3.58,0,6.08.54,7.8,1.9,1.43,1.15,2.22,2.83,2.22,5.05,0,3.08-2.18,5.19-4.26,5.94v.11c1.68.68,2.61,2.29,3.22,4.51.75,2.72,1.5,5.87,1.97,6.8h-5.58c-.39-.68-.97-2.65-1.68-5.62-.64-3.01-1.68-3.83-3.9-3.87h-1.65v9.49h-5.41v-23.81ZM937.25,729.84h2.15c2.72,0,4.33-1.36,4.33-3.47,0-2.22-1.5-3.33-4.01-3.37-1.33,0-2.08.11-2.47.18v6.66Z"/>
  </g>
</svg>